<svg width="95" height="40" viewBox="0 0 95 40" fill="none" xmlns="http://www.w3.org/2000/svg">
<path d="M20.0752 16.2334C19.0498 16.2334 18.2559 16.6201 17.6934 17.3936C17.1309 18.1611 16.8496 19.2334 16.8496 20.6104C16.8496 23.4756 17.9248 24.9082 20.0752 24.9082C20.9775 24.9082 22.0703 24.6826 23.3535 24.2314V26.5166C22.2988 26.9561 21.1211 27.1758 19.8203 27.1758C17.9512 27.1758 16.5215 26.6104 15.5312 25.4795C14.541 24.3428 14.0459 22.7139 14.0459 20.5928C14.0459 19.2568 14.2891 18.0879 14.7754 17.0859C15.2617 16.0781 15.959 15.3076 16.8672 14.7744C17.7812 14.2354 18.8506 13.9658 20.0752 13.9658C21.3232 13.9658 22.5771 14.2676 23.8369 14.8711L22.958 17.0859C22.4775 16.8574 21.9941 16.6582 21.5078 16.4883C21.0215 16.3184 20.5439 16.2334 20.0752 16.2334ZM36.5547 14.1504V22.4648C36.5547 23.4141 36.3408 24.2461 35.9131 24.9609C35.4912 25.6758 34.8789 26.2236 34.0762 26.6045C33.2734 26.9854 32.3242 27.1758 31.2285 27.1758C29.5762 27.1758 28.293 26.7539 27.3789 25.9102C26.4648 25.0605 26.0078 23.9004 26.0078 22.4297V14.1504H28.7236V22.0166C28.7236 23.0068 28.9229 23.7334 29.3213 24.1963C29.7197 24.6592 30.3789 24.8906 31.2988 24.8906C32.1895 24.8906 32.834 24.6592 33.2324 24.1963C33.6367 23.7275 33.8389 22.9951 33.8389 21.999V14.1504H36.5547ZM39.7012 27V14.1504H42.4258V24.75H47.6377V27H39.7012ZM54.8359 27H52.1113V16.418H48.6221V14.1504H58.3252V16.418H54.8359V27ZM70.7617 14.1504V22.4648C70.7617 23.4141 70.5479 24.2461 70.1201 24.9609C69.6982 25.6758 69.0859 26.2236 68.2832 26.6045C67.4805 26.9854 66.5312 27.1758 65.4355 27.1758C63.7832 27.1758 62.5 26.7539 61.5859 25.9102C60.6719 25.0605 60.2148 23.9004 60.2148 22.4297V14.1504H62.9307V22.0166C62.9307 23.0068 63.1299 23.7334 63.5283 24.1963C63.9268 24.6592 64.5859 24.8906 65.5059 24.8906C66.3965 24.8906 67.041 24.6592 67.4395 24.1963C67.8438 23.7275 68.0459 22.9951 68.0459 21.999V14.1504H70.7617ZM76.6328 19.8545H77.5117C78.373 19.8545 79.0088 19.7109 79.4189 19.4238C79.8291 19.1367 80.0342 18.6855 80.0342 18.0703C80.0342 17.4609 79.8232 17.0273 79.4014 16.7695C78.9854 16.5117 78.3379 16.3828 77.459 16.3828H76.6328V19.8545ZM76.6328 22.0693V27H73.9082V14.1504H77.6523C79.3984 14.1504 80.6904 14.4697 81.5283 15.1084C82.3662 15.7412 82.7852 16.7051 82.7852 18C82.7852 18.7559 82.5771 19.4297 82.1611 20.0215C81.7451 20.6074 81.1562 21.0674 80.3945 21.4014C82.3281 24.29 83.5879 26.1562 84.1738 27H81.1504L78.083 22.0693H76.6328ZM93.1914 27H85.791V14.1504H93.1914V16.3828H88.5156V19.2041H92.8662V21.4365H88.5156V24.75H93.1914V27Z" fill="white"/>
<path fill-rule="evenodd" clip-rule="evenodd" d="M3.6 3.6H89.4V36.4H3.6V3.6ZM0 0H3.6H89.4H93V3.6L93 11H89.4V29H93L93 36.4V40H89.4H3.6H0V36.4V3.6V0Z" fill="#6AAF28"/>
</svg>
