<svg width="26" height="18" viewBox="0 0 26 18" fill="none" xmlns="http://www.w3.org/2000/svg">
<path fill-rule="evenodd" clip-rule="evenodd" d="M5.5 6.5C5.5 5.80964 6.05964 5.25 6.75 5.25H24.25C24.9404 5.25 25.5 5.80964 25.5 6.5C25.5 7.19036 24.9404 7.75 24.25 7.75H6.75C6.05964 7.75 5.5 7.19036 5.5 6.5Z" fill="white"/>
<path fill-rule="evenodd" clip-rule="evenodd" d="M0.5 1.5C0.5 0.809644 1.05964 0.25 1.75 0.25H24.25C24.9404 0.25 25.5 0.809644 25.5 1.5C25.5 2.19036 24.9404 2.75 24.25 2.75H1.75C1.05964 2.75 0.5 2.19036 0.5 1.5Z" fill="white"/>
<path fill-rule="evenodd" clip-rule="evenodd" d="M0.5 11.5C0.5 10.8096 1.05964 10.25 1.75 10.25H24.25C24.9404 10.25 25.5 10.8096 25.5 11.5C25.5 12.1904 24.9404 12.75 24.25 12.75H1.75C1.05964 12.75 0.5 12.1904 0.5 11.5Z" fill="white"/>
<path fill-rule="evenodd" clip-rule="evenodd" d="M5.5 16.5C5.5 15.8096 6.05964 15.25 6.75 15.25H24.25C24.9404 15.25 25.5 15.8096 25.5 16.5C25.5 17.1904 24.9404 17.75 24.25 17.75H6.75C6.05964 17.75 5.5 17.1904 5.5 16.5Z" fill="white"/>
</svg>
